<mxfile host="app.diagrams.net" agent="Mozilla/5.0 (Macintosh; Intel Mac OS X 10_15_7) AppleWebKit/537.36 (KHTML, like Gecko) Chrome/136.0.0.0 Safari/537.36 Edg/136.0.0.0" version="27.0.6">
  <diagram name="Page-1" id="YrvKwiJk3qERus9YprmD">
    <mxGraphModel dx="1635" dy="981" grid="1" gridSize="10" guides="1" tooltips="1" connect="1" arrows="1" fold="1" page="1" pageScale="1" pageWidth="850" pageHeight="1100" math="0" shadow="0">
      <root>
        <mxCell id="0" />
        <mxCell id="1" parent="0" />
        <mxCell id="mrTejsvPZRhqanZIm0aT-1" value="System Design" style="rounded=1;whiteSpace=wrap;html=1;fillColor=#dae8fc;strokeColor=#6c8ebf;" parent="1" vertex="1">
          <mxGeometry x="40" y="40" width="440" height="80" as="geometry" />
        </mxCell>
        <mxCell id="mrTejsvPZRhqanZIm0aT-2" value="ES DB" style="shape=cylinder3;whiteSpace=wrap;html=1;boundedLbl=1;backgroundOutline=1;size=15;" parent="1" vertex="1">
          <mxGeometry x="410" y="288" width="60" height="80" as="geometry" />
        </mxCell>
        <mxCell id="cFTC_v0eCNy4AJoAjEGW-1" value="" style="edgeStyle=orthogonalEdgeStyle;rounded=0;orthogonalLoop=1;jettySize=auto;html=1;" parent="1" source="mrTejsvPZRhqanZIm0aT-3" target="RcJYTu3TiXNyRZz9W4DN-14" edge="1">
          <mxGeometry relative="1" as="geometry" />
        </mxCell>
        <mxCell id="mrTejsvPZRhqanZIm0aT-3" value="Customer" style="shape=umlActor;verticalLabelPosition=bottom;verticalAlign=top;html=1;outlineConnect=0;" parent="1" vertex="1">
          <mxGeometry x="50" y="170" width="30" height="60" as="geometry" />
        </mxCell>
        <mxCell id="mrTejsvPZRhqanZIm0aT-4" value="APP" style="whiteSpace=wrap;html=1;aspect=fixed;" parent="1" vertex="1">
          <mxGeometry x="230" y="280" width="80" height="80" as="geometry" />
        </mxCell>
        <mxCell id="mrTejsvPZRhqanZIm0aT-5" value="Redis Cache" style="shape=cylinder3;whiteSpace=wrap;html=1;boundedLbl=1;backgroundOutline=1;size=15;" parent="1" vertex="1">
          <mxGeometry x="370" y="403" width="60" height="80" as="geometry" />
        </mxCell>
        <mxCell id="mrTejsvPZRhqanZIm0aT-37" value="App Design" style="rounded=1;whiteSpace=wrap;html=1;fillColor=#dae8fc;strokeColor=#6c8ebf;" parent="1" vertex="1">
          <mxGeometry x="760" y="40" width="720" height="80" as="geometry" />
        </mxCell>
        <mxCell id="mrTejsvPZRhqanZIm0aT-40" value="" style="edgeStyle=orthogonalEdgeStyle;rounded=0;orthogonalLoop=1;jettySize=auto;html=1;" parent="1" source="mrTejsvPZRhqanZIm0aT-38" target="mrTejsvPZRhqanZIm0aT-39" edge="1">
          <mxGeometry relative="1" as="geometry" />
        </mxCell>
        <mxCell id="mrTejsvPZRhqanZIm0aT-38" value="APP" style="whiteSpace=wrap;html=1;aspect=fixed;fillColor=#b1ddf0;strokeColor=#10739e;" parent="1" vertex="1">
          <mxGeometry x="760" y="160" width="80" height="80" as="geometry" />
        </mxCell>
        <mxCell id="mrTejsvPZRhqanZIm0aT-54" style="edgeStyle=orthogonalEdgeStyle;rounded=0;orthogonalLoop=1;jettySize=auto;html=1;entryX=0.5;entryY=0;entryDx=0;entryDy=0;" parent="1" source="mrTejsvPZRhqanZIm0aT-39" target="mrTejsvPZRhqanZIm0aT-45" edge="1">
          <mxGeometry relative="1" as="geometry" />
        </mxCell>
        <mxCell id="RcJYTu3TiXNyRZz9W4DN-22" style="edgeStyle=orthogonalEdgeStyle;rounded=0;orthogonalLoop=1;jettySize=auto;html=1;entryX=0;entryY=0.5;entryDx=0;entryDy=0;" parent="1" source="mrTejsvPZRhqanZIm0aT-39" target="RcJYTu3TiXNyRZz9W4DN-19" edge="1">
          <mxGeometry relative="1" as="geometry">
            <Array as="points">
              <mxPoint x="1009" y="280" />
              <mxPoint x="810" y="280" />
              <mxPoint x="810" y="480" />
            </Array>
          </mxGeometry>
        </mxCell>
        <mxCell id="RcJYTu3TiXNyRZz9W4DN-23" style="edgeStyle=orthogonalEdgeStyle;rounded=0;orthogonalLoop=1;jettySize=auto;html=1;entryX=0;entryY=0.5;entryDx=0;entryDy=0;" parent="1" source="mrTejsvPZRhqanZIm0aT-39" target="mrTejsvPZRhqanZIm0aT-43" edge="1">
          <mxGeometry relative="1" as="geometry">
            <Array as="points">
              <mxPoint x="1009" y="280" />
              <mxPoint x="810" y="280" />
              <mxPoint x="810" y="360" />
            </Array>
          </mxGeometry>
        </mxCell>
        <mxCell id="mrTejsvPZRhqanZIm0aT-39" value="MAIN" style="whiteSpace=wrap;html=1;aspect=fixed;fillColor=#b1ddf0;strokeColor=#10739e;" parent="1" vertex="1">
          <mxGeometry x="969" y="160" width="80" height="80" as="geometry" />
        </mxCell>
        <mxCell id="RcJYTu3TiXNyRZz9W4DN-26" style="edgeStyle=orthogonalEdgeStyle;rounded=0;orthogonalLoop=1;jettySize=auto;html=1;entryX=0.5;entryY=0;entryDx=0;entryDy=0;" parent="1" source="mrTejsvPZRhqanZIm0aT-41" target="mrTejsvPZRhqanZIm0aT-58" edge="1">
          <mxGeometry relative="1" as="geometry" />
        </mxCell>
        <mxCell id="RcJYTu3TiXNyRZz9W4DN-27" style="edgeStyle=orthogonalEdgeStyle;rounded=0;orthogonalLoop=1;jettySize=auto;html=1;" parent="1" source="mrTejsvPZRhqanZIm0aT-41" target="mrTejsvPZRhqanZIm0aT-60" edge="1">
          <mxGeometry relative="1" as="geometry">
            <Array as="points">
              <mxPoint x="1151" y="490" />
              <mxPoint x="1291" y="490" />
            </Array>
          </mxGeometry>
        </mxCell>
        <mxCell id="mrTejsvPZRhqanZIm0aT-41" value="API" style="whiteSpace=wrap;html=1;aspect=fixed;fillColor=#e1d5e7;strokeColor=#9673a6;" parent="1" vertex="1">
          <mxGeometry x="1111" y="390" width="80" height="80" as="geometry" />
        </mxCell>
        <mxCell id="mrTejsvPZRhqanZIm0aT-47" value="" style="edgeStyle=orthogonalEdgeStyle;rounded=0;orthogonalLoop=1;jettySize=auto;html=1;" parent="1" source="mrTejsvPZRhqanZIm0aT-43" target="mrTejsvPZRhqanZIm0aT-45" edge="1">
          <mxGeometry relative="1" as="geometry" />
        </mxCell>
        <mxCell id="mrTejsvPZRhqanZIm0aT-43" value="ES" style="whiteSpace=wrap;html=1;aspect=fixed;fillColor=#d5e8d4;strokeColor=#82b366;" parent="1" vertex="1">
          <mxGeometry x="850" y="320" width="80" height="80" as="geometry" />
        </mxCell>
        <mxCell id="RcJYTu3TiXNyRZz9W4DN-25" value="" style="edgeStyle=orthogonalEdgeStyle;rounded=0;orthogonalLoop=1;jettySize=auto;html=1;" parent="1" source="mrTejsvPZRhqanZIm0aT-45" target="mrTejsvPZRhqanZIm0aT-41" edge="1">
          <mxGeometry relative="1" as="geometry" />
        </mxCell>
        <mxCell id="mrTejsvPZRhqanZIm0aT-45" value="Service" style="whiteSpace=wrap;html=1;aspect=fixed;fillColor=#f8cecc;strokeColor=#b85450;" parent="1" vertex="1">
          <mxGeometry x="970" y="390" width="80" height="80" as="geometry" />
        </mxCell>
        <mxCell id="RcJYTu3TiXNyRZz9W4DN-28" style="edgeStyle=orthogonalEdgeStyle;rounded=0;orthogonalLoop=1;jettySize=auto;html=1;entryX=0.5;entryY=0;entryDx=0;entryDy=0;" parent="1" source="mrTejsvPZRhqanZIm0aT-58" target="mrTejsvPZRhqanZIm0aT-62" edge="1">
          <mxGeometry relative="1" as="geometry">
            <Array as="points">
              <mxPoint x="1151" y="590" />
              <mxPoint x="1030" y="590" />
            </Array>
          </mxGeometry>
        </mxCell>
        <mxCell id="mrTejsvPZRhqanZIm0aT-58" value="/api/media/search" style="whiteSpace=wrap;html=1;fillColor=#e1d5e7;strokeColor=#9673a6;" parent="1" vertex="1">
          <mxGeometry x="1091" y="510" width="120" height="60" as="geometry" />
        </mxCell>
        <mxCell id="mrTejsvPZRhqanZIm0aT-60" value="/health" style="whiteSpace=wrap;html=1;fillColor=#e1d5e7;strokeColor=#9673a6;" parent="1" vertex="1">
          <mxGeometry x="1231" y="510" width="120" height="60" as="geometry" />
        </mxCell>
        <mxCell id="RcJYTu3TiXNyRZz9W4DN-38" style="edgeStyle=orthogonalEdgeStyle;rounded=0;orthogonalLoop=1;jettySize=auto;html=1;entryX=0;entryY=0.5;entryDx=0;entryDy=0;" parent="1" source="mrTejsvPZRhqanZIm0aT-62" target="RcJYTu3TiXNyRZz9W4DN-31" edge="1">
          <mxGeometry relative="1" as="geometry" />
        </mxCell>
        <mxCell id="RcJYTu3TiXNyRZz9W4DN-40" style="edgeStyle=orthogonalEdgeStyle;rounded=0;orthogonalLoop=1;jettySize=auto;html=1;entryX=0;entryY=0.5;entryDx=0;entryDy=0;" parent="1" source="mrTejsvPZRhqanZIm0aT-62" target="mrTejsvPZRhqanZIm0aT-66" edge="1">
          <mxGeometry relative="1" as="geometry" />
        </mxCell>
        <mxCell id="RcJYTu3TiXNyRZz9W4DN-43" style="edgeStyle=orthogonalEdgeStyle;rounded=0;orthogonalLoop=1;jettySize=auto;html=1;entryX=0;entryY=0.5;entryDx=0;entryDy=0;" parent="1" source="mrTejsvPZRhqanZIm0aT-62" target="mrTejsvPZRhqanZIm0aT-68" edge="1">
          <mxGeometry relative="1" as="geometry" />
        </mxCell>
        <mxCell id="RcJYTu3TiXNyRZz9W4DN-44" style="edgeStyle=orthogonalEdgeStyle;rounded=0;orthogonalLoop=1;jettySize=auto;html=1;entryX=0;entryY=0.5;entryDx=0;entryDy=0;" parent="1" source="mrTejsvPZRhqanZIm0aT-62" target="RcJYTu3TiXNyRZz9W4DN-32" edge="1">
          <mxGeometry relative="1" as="geometry" />
        </mxCell>
        <mxCell id="mrTejsvPZRhqanZIm0aT-62" value="search_media" style="whiteSpace=wrap;html=1;fillColor=#f8cecc;strokeColor=#b85450;" parent="1" vertex="1">
          <mxGeometry x="971" y="621" width="120" height="60" as="geometry" />
        </mxCell>
        <mxCell id="mrTejsvPZRhqanZIm0aT-66" value="search_media" style="whiteSpace=wrap;html=1;fillColor=#d5e8d4;strokeColor=#82b366;" parent="1" vertex="1">
          <mxGeometry x="1200" y="753.5" width="120" height="60" as="geometry" />
        </mxCell>
        <mxCell id="mrTejsvPZRhqanZIm0aT-68" value="generate_image_url" style="whiteSpace=wrap;html=1;fillColor=#f8cecc;strokeColor=#b85450;" parent="1" vertex="1">
          <mxGeometry x="1200" y="833.5" width="120" height="60" as="geometry" />
        </mxCell>
        <mxCell id="mrTejsvPZRhqanZIm0aT-70" value="ES DB" style="shape=cylinder3;whiteSpace=wrap;html=1;boundedLbl=1;backgroundOutline=1;size=15;" parent="1" vertex="1">
          <mxGeometry x="1360" y="744.5" width="60" height="80" as="geometry" />
        </mxCell>
        <mxCell id="RcJYTu3TiXNyRZz9W4DN-9" value="APP" style="whiteSpace=wrap;html=1;aspect=fixed;" parent="1" vertex="1">
          <mxGeometry x="240" y="290" width="80" height="80" as="geometry" />
        </mxCell>
        <mxCell id="RcJYTu3TiXNyRZz9W4DN-10" value="APP" style="whiteSpace=wrap;html=1;aspect=fixed;" parent="1" vertex="1">
          <mxGeometry x="250" y="300" width="80" height="80" as="geometry" />
        </mxCell>
        <mxCell id="RcJYTu3TiXNyRZz9W4DN-12" style="edgeStyle=orthogonalEdgeStyle;rounded=0;orthogonalLoop=1;jettySize=auto;html=1;entryX=0;entryY=0;entryDx=0;entryDy=52.5;entryPerimeter=0;" parent="1" source="RcJYTu3TiXNyRZz9W4DN-10" target="mrTejsvPZRhqanZIm0aT-2" edge="1">
          <mxGeometry relative="1" as="geometry" />
        </mxCell>
        <mxCell id="RcJYTu3TiXNyRZz9W4DN-13" style="edgeStyle=orthogonalEdgeStyle;rounded=0;orthogonalLoop=1;jettySize=auto;html=1;entryX=0;entryY=0.5;entryDx=0;entryDy=0;entryPerimeter=0;" parent="1" source="RcJYTu3TiXNyRZz9W4DN-10" target="mrTejsvPZRhqanZIm0aT-5" edge="1">
          <mxGeometry relative="1" as="geometry" />
        </mxCell>
        <mxCell id="RcJYTu3TiXNyRZz9W4DN-16" style="edgeStyle=orthogonalEdgeStyle;rounded=0;orthogonalLoop=1;jettySize=auto;html=1;entryX=0;entryY=0.5;entryDx=0;entryDy=0;" parent="1" source="RcJYTu3TiXNyRZz9W4DN-14" target="mrTejsvPZRhqanZIm0aT-4" edge="1">
          <mxGeometry relative="1" as="geometry" />
        </mxCell>
        <mxCell id="RcJYTu3TiXNyRZz9W4DN-14" value="LB" style="whiteSpace=wrap;html=1;aspect=fixed;" parent="1" vertex="1">
          <mxGeometry x="159" y="160" width="80" height="80" as="geometry" />
        </mxCell>
        <mxCell id="RcJYTu3TiXNyRZz9W4DN-21" style="edgeStyle=orthogonalEdgeStyle;rounded=0;orthogonalLoop=1;jettySize=auto;html=1;entryX=0;entryY=0.5;entryDx=0;entryDy=0;" parent="1" source="RcJYTu3TiXNyRZz9W4DN-19" target="mrTejsvPZRhqanZIm0aT-45" edge="1">
          <mxGeometry relative="1" as="geometry" />
        </mxCell>
        <mxCell id="RcJYTu3TiXNyRZz9W4DN-19" value="Redis" style="whiteSpace=wrap;html=1;aspect=fixed;fillColor=#bac8d3;strokeColor=#23445d;" parent="1" vertex="1">
          <mxGeometry x="850" y="440" width="80" height="80" as="geometry" />
        </mxCell>
        <mxCell id="RcJYTu3TiXNyRZz9W4DN-24" value="Redis DB" style="shape=cylinder3;whiteSpace=wrap;html=1;boundedLbl=1;backgroundOutline=1;size=15;" parent="1" vertex="1">
          <mxGeometry x="1410" y="660" width="60" height="80" as="geometry" />
        </mxCell>
        <mxCell id="RcJYTu3TiXNyRZz9W4DN-31" value="get" style="whiteSpace=wrap;html=1;fillColor=#bac8d3;strokeColor=#23445d;" parent="1" vertex="1">
          <mxGeometry x="1200" y="670" width="120" height="60" as="geometry" />
        </mxCell>
        <mxCell id="RcJYTu3TiXNyRZz9W4DN-32" value="set" style="whiteSpace=wrap;html=1;fillColor=#bac8d3;strokeColor=#23445d;" parent="1" vertex="1">
          <mxGeometry x="1200" y="909.5" width="120" height="60" as="geometry" />
        </mxCell>
        <mxCell id="RcJYTu3TiXNyRZz9W4DN-36" style="edgeStyle=orthogonalEdgeStyle;rounded=0;orthogonalLoop=1;jettySize=auto;html=1;entryX=0;entryY=0.5;entryDx=0;entryDy=0;entryPerimeter=0;" parent="1" source="RcJYTu3TiXNyRZz9W4DN-31" target="RcJYTu3TiXNyRZz9W4DN-24" edge="1">
          <mxGeometry relative="1" as="geometry" />
        </mxCell>
        <mxCell id="RcJYTu3TiXNyRZz9W4DN-41" style="edgeStyle=orthogonalEdgeStyle;rounded=0;orthogonalLoop=1;jettySize=auto;html=1;entryX=0;entryY=0.5;entryDx=0;entryDy=0;entryPerimeter=0;" parent="1" source="mrTejsvPZRhqanZIm0aT-66" target="mrTejsvPZRhqanZIm0aT-70" edge="1">
          <mxGeometry relative="1" as="geometry" />
        </mxCell>
        <mxCell id="RcJYTu3TiXNyRZz9W4DN-46" style="edgeStyle=orthogonalEdgeStyle;rounded=0;orthogonalLoop=1;jettySize=auto;html=1;entryX=0.5;entryY=1;entryDx=0;entryDy=0;entryPerimeter=0;" parent="1" source="RcJYTu3TiXNyRZz9W4DN-32" target="RcJYTu3TiXNyRZz9W4DN-24" edge="1">
          <mxGeometry relative="1" as="geometry" />
        </mxCell>
      </root>
    </mxGraphModel>
  </diagram>
</mxfile>
